<svg width="88" height="24" viewBox="0 0 88 24" fill="none" xmlns="http://www.w3.org/2000/svg">
<defs>
  <linearGradient id="logoGradient" x1="0%" y1="0%" x2="100%" y2="0%">
    <stop offset="0%" style="stop-color:#0F76F5;stop-opacity:1" />
    <stop offset="100%" style="stop-color:#0C5EC4;stop-opacity:1" />
  </linearGradient>
</defs>
<path d="M10.6463 9.20597C10.5658 8.90767 10.4474 8.64489 10.2912 8.41761C10.1349 8.18561 9.94318 7.98911 9.71591 7.82812C9.48864 7.66714 9.22822 7.5464 8.93466 7.46591C8.6411 7.38068 8.31913 7.33807 7.96875 7.33807C7.26326 7.33807 6.65246 7.50852 6.13636 7.84943C5.625 8.19034 5.22964 8.6875 4.95028 9.34091C4.67093 9.98958 4.53125 10.7779 4.53125 11.706C4.53125 12.6387 4.66619 13.4342 4.93608 14.0923C5.20597 14.7505 5.59659 15.2524 6.10795 15.598C6.61932 15.9437 7.23958 16.1165 7.96875 16.1165C8.61269 16.1165 9.1572 16.0123 9.60227 15.804C10.0521 15.5909 10.393 15.2902 10.625 14.902C10.857 14.5137 10.973 14.0568 10.973 13.5312L11.6264 13.6094H8.08949V11.0455H14.3608V12.9702C14.3608 14.2723 14.0838 15.3873 13.5298 16.3153C12.9806 17.2434 12.223 17.956 11.2571 18.4531C10.2959 18.9503 9.19034 19.1989 7.94034 19.1989C6.55303 19.1989 5.33381 18.8982 4.28267 18.2969C3.23153 17.6955 2.41241 16.8385 1.82528 15.7259C1.23816 14.6084 0.944602 13.2827 0.944602 11.7486C0.944602 10.5554 1.12216 9.49716 1.47727 8.57386C1.83239 7.64583 2.32718 6.85985 2.96165 6.21591C3.60085 5.57197 4.33949 5.08428 5.17756 4.75284C6.02036 4.4214 6.92708 4.25568 7.89773 4.25568C8.74053 4.25568 9.52415 4.37642 10.2486 4.6179C10.9777 4.85938 11.6217 5.20028 12.1804 5.64062C12.7438 6.08097 13.2008 6.60417 13.5511 7.21023C13.9015 7.81629 14.1193 8.48153 14.2045 9.20597H10.6463ZM20.1323 19.206C18.9912 19.206 18.0064 18.9811 17.1778 18.5312C16.3539 18.0767 15.7194 17.4304 15.2744 16.5923C14.834 15.7495 14.6138 14.7481 14.6138 13.5881C14.6138 12.4612 14.8364 11.4763 15.2815 10.6335C15.7265 9.78598 16.3539 9.12784 17.1636 8.65909C17.9732 8.18561 18.9273 7.94886 20.0258 7.94886C20.8023 7.94886 21.5125 8.0696 22.1565 8.31108C22.8004 8.55256 23.3567 8.91004 23.8255 9.38352C24.2942 9.85701 24.6588 10.4418 24.9192 11.1378C25.1797 11.8291 25.3099 12.6222 25.3099 13.517V14.3835H15.8283V12.3665H22.0783C22.0736 11.9972 21.986 11.6681 21.8156 11.3793C21.6451 11.0904 21.4107 10.8655 21.1124 10.7045C20.8189 10.5388 20.4803 10.456 20.0968 10.456C19.7085 10.456 19.3605 10.5436 19.0528 10.7188C18.745 10.8892 18.5012 11.1236 18.3212 11.4219C18.1413 11.7154 18.0466 12.0492 18.0371 12.4233V14.4759C18.0371 14.9209 18.1247 15.3116 18.2999 15.6477C18.4751 15.9792 18.7237 16.2372 19.0457 16.4219C19.3676 16.6065 19.7512 16.6989 20.1962 16.6989C20.504 16.6989 20.7834 16.6562 21.0343 16.571C21.2853 16.4858 21.5007 16.3603 21.6806 16.1946C21.8605 16.0289 21.9955 15.8253 22.0854 15.5838L25.2744 15.6761C25.1418 16.3911 24.8506 17.0137 24.4008 17.544C23.9557 18.0696 23.371 18.4792 22.6465 18.7727C21.9221 19.0616 21.084 19.206 20.1323 19.206ZM31.8413 8.09091V10.6477H24.9592V8.09091H31.8413ZM26.401 5.47727H29.874V15.5696C29.874 15.7827 29.9072 15.9555 29.9734 16.0881C30.0445 16.2159 30.1463 16.3082 30.2788 16.3651C30.4114 16.4171 30.57 16.4432 30.7547 16.4432C30.8873 16.4432 31.0269 16.4313 31.1737 16.4077C31.3252 16.3793 31.4389 16.3556 31.5146 16.3366L32.0402 18.8438C31.8745 18.8911 31.6401 18.9503 31.3371 19.0213C31.0388 19.0923 30.6813 19.1373 30.2646 19.1562C29.4502 19.1941 28.7518 19.0994 28.1695 18.8722C27.5918 18.6402 27.1491 18.2803 26.8413 17.7926C26.5383 17.3049 26.3915 16.6918 26.401 15.9531V5.47727ZM32.4477 19V4.45455H35.9634V10.2926H41.6949V4.45455H45.2034V19H41.6949V13.1548H35.9634V19H32.4477ZM51.1081 19.206C49.967 19.206 48.9822 18.9811 48.1536 18.5312C47.3297 18.0767 46.6952 17.4304 46.2501 16.5923C45.8098 15.7495 45.5896 14.7481 45.5896 13.5881C45.5896 12.4612 45.8122 11.4763 46.2572 10.6335C46.7023 9.78598 47.3297 9.12784 48.1393 8.65909C48.949 8.18561 49.9031 7.94886 51.0016 7.94886C51.7781 7.94886 52.4883 8.0696 53.1322 8.31108C53.7762 8.55256 54.3325 8.91004 54.8013 9.38352C55.27 9.85701 55.6346 10.4418 55.895 11.1378C56.1554 11.8291 56.2857 12.6222 56.2857 13.517V14.3835H46.8041V12.3665H53.0541C53.0494 11.9972 52.9618 11.6681 52.7913 11.3793C52.6209 11.0904 52.3865 10.8655 52.0882 10.7045C51.7947 10.5388 51.4561 10.456 51.0726 10.456C50.6843 10.456 50.3363 10.5436 50.0286 10.7188C49.7208 10.8892 49.4769 11.1236 49.297 11.4219C49.1171 11.7154 49.0224 12.0492 49.0129 12.4233V14.4759C49.0129 14.9209 49.1005 15.3116 49.2757 15.6477C49.4509 15.9792 49.6995 16.2372 50.0215 16.4219C50.3434 16.6065 50.7269 16.6989 51.172 16.6989C51.4798 16.6989 51.7591 16.6562 52.0101 16.571C52.261 16.4858 52.4765 16.3603 52.6564 16.1946C52.8363 16.0289 52.9713 15.8253 53.0612 15.5838L56.2501 15.6761C56.1176 16.3911 55.8264 17.0137 55.3766 17.544C54.9315 18.0696 54.3467 18.4792 53.6223 18.7727C52.8979 19.0616 52.0598 19.206 51.1081 19.206ZM59.7347 19.1847C59.0387 19.1847 58.4208 19.0687 57.881 18.8366C57.346 18.5999 56.9222 18.2448 56.6097 17.7713C56.302 17.2931 56.1481 16.6941 56.1481 15.9744C56.1481 15.3684 56.2546 14.857 56.4677 14.4403C56.6808 14.0237 56.9743 13.6851 57.3484 13.4247C57.7224 13.1643 58.1533 12.9678 58.641 12.8352C59.1287 12.6979 59.6495 12.6056 60.2035 12.5582C60.8237 12.5014 61.3233 12.4422 61.7021 12.3807C62.0808 12.3144 62.3555 12.2221 62.5259 12.1037C62.7011 11.9806 62.7887 11.8078 62.7887 11.5852V11.5497C62.7887 11.1851 62.6632 10.9034 62.4123 10.7045C62.1613 10.5057 61.8228 10.4062 61.3967 10.4062C60.9374 10.4062 60.5681 10.5057 60.2887 10.7045C60.0094 10.9034 59.8318 11.178 59.756 11.5284L56.5529 11.4148C56.6476 10.7519 56.8915 10.16 57.2844 9.6392C57.6822 9.11364 58.2267 8.7017 58.918 8.40341C59.614 8.10038 60.4497 7.94886 61.4251 7.94886C62.1211 7.94886 62.7627 8.03172 63.3498 8.19744C63.9369 8.35843 64.4483 8.59517 64.8839 8.90767C65.3195 9.21544 65.6557 9.59422 65.8924 10.044C66.1339 10.4938 66.2546 11.0076 66.2546 11.5852V19H62.9876V17.4801H62.9023C62.7082 17.8494 62.4596 18.1619 62.1566 18.4176C61.8583 18.6733 61.5056 18.8651 61.0984 18.9929C60.6959 19.1207 60.2414 19.1847 59.7347 19.1847ZM60.8072 16.9119C61.1812 16.9119 61.5174 16.8362 61.8157 16.6847C62.1187 16.5331 62.3602 16.3248 62.5401 16.0597C62.7201 15.7898 62.81 15.4773 62.81 15.1222V14.0852C62.7106 14.1373 62.5898 14.1847 62.4478 14.2273C62.3105 14.2699 62.159 14.3101 61.9933 14.348C61.8275 14.3859 61.6571 14.419 61.4819 14.4474C61.3067 14.4759 61.1386 14.5019 60.9776 14.5256C60.6509 14.5777 60.3716 14.6581 60.1396 14.767C59.9123 14.8759 59.7371 15.018 59.614 15.1932C59.4956 15.3636 59.4364 15.5672 59.4364 15.804C59.4364 16.1638 59.5643 16.4384 59.82 16.6278C60.0804 16.8172 60.4094 16.9119 60.8072 16.9119ZM66.9782 19V8.09091H70.3518V10.0795H70.4654C70.6643 9.35985 70.9886 8.82481 71.4384 8.47443C71.8882 8.11932 72.4114 7.94176 73.008 7.94176C73.169 7.94176 73.3347 7.9536 73.5052 7.97727C73.6756 7.99621 73.8343 8.02699 73.981 8.0696V11.0881C73.8153 11.0312 73.5975 10.9863 73.3276 10.9531C73.0625 10.92 72.8257 10.9034 72.6174 10.9034C72.2055 10.9034 71.8338 10.9957 71.5023 11.1804C71.1756 11.3603 70.9176 11.6136 70.7282 11.9403C70.5435 12.2623 70.4512 12.6411 70.4512 13.0767V19H66.9782ZM83.5203 11.4219L80.3314 11.5071C80.2982 11.2798 80.2083 11.0786 80.0615 10.9034C79.9147 10.7235 79.723 10.5838 79.4862 10.4844C79.2542 10.3802 78.9843 10.3281 78.6766 10.3281C78.2741 10.3281 77.9308 10.4086 77.6467 10.5696C77.3674 10.7306 77.2301 10.9484 77.2348 11.223C77.2301 11.4361 77.3153 11.6207 77.4905 11.777C77.6704 11.9332 77.99 12.0587 78.4493 12.1534L80.5516 12.5511C81.6406 12.7595 82.4502 13.1051 82.9805 13.5881C83.5156 14.071 83.7855 14.7102 83.7902 15.5057C83.7855 16.2538 83.5629 16.9048 83.1226 17.4588C82.687 18.0128 82.0904 18.4437 81.3328 18.7514C80.5752 19.0545 79.7088 19.206 78.7334 19.206C77.1756 19.206 75.9469 18.8864 75.0473 18.2472C74.1524 17.6032 73.641 16.7415 73.5132 15.6619L76.9436 15.5767C77.0194 15.9744 77.2159 16.2775 77.5331 16.4858C77.8503 16.6941 78.2552 16.7983 78.7476 16.7983C79.1927 16.7983 79.5549 16.7154 79.8342 16.5497C80.1136 16.384 80.2556 16.1638 80.2604 15.8892C80.2556 15.643 80.1467 15.4465 79.9337 15.2997C79.7206 15.1482 79.3868 15.0298 78.9322 14.9446L77.0288 14.5824C75.9351 14.3835 75.1207 14.0166 74.5857 13.4815C74.0506 12.9418 73.7855 12.2552 73.7902 11.4219C73.7855 10.6927 73.9796 10.0701 74.3726 9.55398C74.7656 9.03314 75.3243 8.63542 76.0487 8.3608C76.7732 8.08617 77.6278 7.94886 78.6126 7.94886C80.0899 7.94886 81.2547 8.259 82.107 8.87926C82.9592 9.49479 83.4303 10.3423 83.5203 11.4219Z" fill="url(#logoGradient)"/>
<circle cx="85.5" cy="6.5" r="2.5" fill="#7C3BF6"/>
</svg>

